<svg version="1.1" xmlns="http://www.w3.org/2000/svg" xmlns:xlink="http://www.w3.org/1999/xlink" width="1280" height="3000"><g fill="none" fill-rule="nonzero" stroke="none" stroke-width="1" stroke-linecap="butt" stroke-linejoin="miter" stroke-miterlimit="10" stroke-dasharray="" stroke-dashoffset="0" font-family="none" font-weight="none" font-size="none" text-anchor="none" style="mix-blend-mode: normal"><path d="M100,20l4.10811,19.63495l4.08278,19.63495l4.03228,19.63495l3.95692,19.63495l3.85717,19.63495l3.73363,19.63495l3.58707,19.63495l3.4184,19.63495l3.22866,19.63495l3.019,19.63495l2.79074,19.63495l2.54527,19.63495l2.2841,19.63495l2.00886,19.63495l1.72123,19.63495l1.42298,19.63495l1.11597,19.63495l0.80207,19.63495l0.48323,19.63495" fill="none" stroke="#0000ff"/><path d="M100,20l-4.10811,19.63495l-4.08278,19.63495l-4.03228,19.63495l-3.95692,19.63495l-3.85717,19.63495l-3.73363,19.63495l-3.58707,19.63495l-3.4184,19.63495l-3.22866,19.63495l-3.019,19.63495l-2.79074,19.63495l-2.54527,19.63495l-2.2841,19.63495l-2.00886,19.63495l-1.72123,19.63495l-1.42298,19.63495l-1.11597,19.63495l-0.80207,19.63495l-0.48323,19.63495" fill="none" stroke="#0000ff"/><path d="M100,20l-24.10811,19.63495l-4.08278,19.63495l-4.03228,19.63495l-3.95692,19.63495l-3.85717,19.63495l-3.73363,19.63495l-3.58707,19.63495l-3.4184,19.63495l-3.22866,19.63495l-3.019,19.63495l-2.79074,19.63495l-2.54527,19.63495l-2.2841,19.63495l-2.00886,19.63495l-1.72123,19.63495l-1.42298,19.63495l-1.11597,19.63495l-0.80207,19.63495l-0.48323,19.63495" fill="none" stroke="#ff0000"/><path d="M100,20l24.10811,19.63495l4.08278,19.63495l4.03228,19.63495l3.95692,19.63495l3.85717,19.63495l3.73363,19.63495l3.58707,19.63495l3.4184,19.63495l3.22866,19.63495l3.019,19.63495l2.79074,19.63495l2.54527,19.63495l2.2841,19.63495l2.00886,19.63495l1.72123,19.63495l1.42298,19.63495l1.11597,19.63495l0.80207,19.63495l0.48323,19.63495" fill="none" stroke="#ff0000"/><path d="M300,20v400" fill="none" stroke="#a0a0a0"/><text x="220" y="-310" transform="rotate(90)" fill="#a0a0a0" stroke="none" font-family="sans-serif" font-weight="normal" font-size="12pt" text-anchor="middle">393 gore length</text><path d="M100,20v0" fill="none" stroke="#a0a0a0"/><path d="M104.10811,39.63495h-8.21622" fill="none" stroke="#a0a0a0"/><path d="M100,20v19.63495" fill="none" stroke="#a0a0a0"/><text x="85.89189" y="37.63495" fill="#000000" stroke="none" font-family="sans-serif" font-weight="normal" font-size="5pt" text-anchor="middle">8</text><path d="M108.19089,59.26991h-16.38178" fill="none" stroke="#a0a0a0"/><path d="M100,39.63495v19.63495" fill="none" stroke="#a0a0a0"/><text x="81.80911" y="57.26991" fill="#000000" stroke="none" font-family="sans-serif" font-weight="normal" font-size="5pt" text-anchor="middle">16</text><path d="M112.22317,78.90486h-24.44634" fill="none" stroke="#a0a0a0"/><path d="M100,59.26991v19.63495" fill="none" stroke="#a0a0a0"/><text x="77.77683" y="76.90486" fill="#000000" stroke="none" font-family="sans-serif" font-weight="normal" font-size="5pt" text-anchor="middle">24</text><path d="M116.18009,98.53982h-32.36018" fill="none" stroke="#a0a0a0"/><path d="M100,78.90486v19.63495" fill="none" stroke="#a0a0a0"/><text x="73.81991" y="96.53982" fill="#000000" stroke="none" font-family="sans-serif" font-weight="normal" font-size="5pt" text-anchor="middle">32</text><path d="M120.03726,118.17477h-40.07452" fill="none" stroke="#a0a0a0"/><path d="M100,98.53982v19.63495" fill="none" stroke="#a0a0a0"/><text x="69.96274" y="116.17477" fill="#000000" stroke="none" font-family="sans-serif" font-weight="normal" font-size="5pt" text-anchor="middle">40</text><path d="M123.77089,137.80972h-47.54177" fill="none" stroke="#a0a0a0"/><path d="M100,118.17477v19.63495" fill="none" stroke="#a0a0a0"/><text x="66.22911" y="135.80972" fill="#000000" stroke="none" font-family="sans-serif" font-weight="normal" font-size="5pt" text-anchor="middle">48</text><path d="M127.35796,157.44468h-54.71592" fill="none" stroke="#a0a0a0"/><path d="M100,137.80972v19.63495" fill="none" stroke="#a0a0a0"/><text x="62.64204" y="155.44468" fill="#000000" stroke="none" font-family="sans-serif" font-weight="normal" font-size="5pt" text-anchor="middle">55</text><path d="M130.77636,177.07963h-61.55273" fill="none" stroke="#a0a0a0"/><path d="M100,157.44468v19.63495" fill="none" stroke="#a0a0a0"/><text x="59.22364" y="175.07963" fill="#000000" stroke="none" font-family="sans-serif" font-weight="normal" font-size="5pt" text-anchor="middle">62</text><path d="M134.00502,196.71459h-68.01004" fill="none" stroke="#a0a0a0"/><path d="M100,177.07963v19.63495" fill="none" stroke="#a0a0a0"/><text x="55.99498" y="194.71459" fill="#000000" stroke="none" font-family="sans-serif" font-weight="normal" font-size="5pt" text-anchor="middle">68</text><path d="M137.02402,216.34954h-74.04805" fill="none" stroke="#a0a0a0"/><path d="M100,196.71459v19.63495" fill="none" stroke="#a0a0a0"/><text x="52.97598" y="214.34954" fill="#000000" stroke="none" font-family="sans-serif" font-weight="normal" font-size="5pt" text-anchor="middle">74</text><path d="M139.81476,235.98449h-79.62953" fill="none" stroke="#a0a0a0"/><path d="M100,216.34954v19.63495" fill="none" stroke="#a0a0a0"/><text x="50.18524" y="233.98449" fill="#000000" stroke="none" font-family="sans-serif" font-weight="normal" font-size="5pt" text-anchor="middle">80</text><path d="M142.36003,255.61945h-84.72006" fill="none" stroke="#a0a0a0"/><path d="M100,235.98449v19.63495" fill="none" stroke="#a0a0a0"/><text x="47.63997" y="253.61945" fill="#000000" stroke="none" font-family="sans-serif" font-weight="normal" font-size="5pt" text-anchor="middle">85</text><path d="M144.64413,275.2544h-89.28827" fill="none" stroke="#a0a0a0"/><path d="M100,255.61945v19.63495" fill="none" stroke="#a0a0a0"/><text x="45.35587" y="273.2544" fill="#000000" stroke="none" font-family="sans-serif" font-weight="normal" font-size="5pt" text-anchor="middle">89</text><path d="M146.65299,294.88936h-93.30599" fill="none" stroke="#a0a0a0"/><path d="M100,275.2544v19.63495" fill="none" stroke="#a0a0a0"/><text x="43.34701" y="292.88936" fill="#000000" stroke="none" font-family="sans-serif" font-weight="normal" font-size="5pt" text-anchor="middle">93</text><path d="M148.37422,314.52431h-96.74844" fill="none" stroke="#a0a0a0"/><path d="M100,294.88936v19.63495" fill="none" stroke="#a0a0a0"/><text x="41.62578" y="312.52431" fill="#000000" stroke="none" font-family="sans-serif" font-weight="normal" font-size="5pt" text-anchor="middle">97</text><path d="M149.7972,334.15927h-99.59441" fill="none" stroke="#a0a0a0"/><path d="M100,314.52431v19.63495" fill="none" stroke="#a0a0a0"/><text x="40.2028" y="332.15927" fill="#000000" stroke="none" font-family="sans-serif" font-weight="normal" font-size="5pt" text-anchor="middle">100</text><path d="M150.91317,353.79422h-101.82634" fill="none" stroke="#a0a0a0"/><path d="M100,334.15927v19.63495" fill="none" stroke="#a0a0a0"/><text x="39.08683" y="351.79422" fill="#000000" stroke="none" font-family="sans-serif" font-weight="normal" font-size="5pt" text-anchor="middle">102</text><path d="M151.71524,373.42917h-103.43048" fill="none" stroke="#a0a0a0"/><path d="M100,353.79422v19.63495" fill="none" stroke="#a0a0a0"/><text x="38.28476" y="371.42917" fill="#000000" stroke="none" font-family="sans-serif" font-weight="normal" font-size="5pt" text-anchor="middle">103</text><path d="M152.19847,393.06413h-104.39694" fill="none" stroke="#a0a0a0"/><path d="M100,373.42917v19.63495" fill="none" stroke="#a0a0a0"/><text x="37.80153" y="391.06413" fill="#000000" stroke="none" font-family="sans-serif" font-weight="normal" font-size="5pt" text-anchor="middle">104</text><text x="340" y="20" fill="#000000" stroke="none" font-family="sans-serif" font-weight="normal" font-size="12pt" text-anchor="start">Total of 15 gores
Gore width = 105
Gore length = 393
Total material in cm 6185 (+5%) 
</text></g></svg>