<svg version="1.1" xmlns="http://www.w3.org/2000/svg" xmlns:xlink="http://www.w3.org/1999/xlink" width="1280" height="3000"><g fill="none" fill-rule="nonzero" stroke="none" stroke-width="1" stroke-linecap="butt" stroke-linejoin="miter" stroke-miterlimit="10" stroke-dasharray="" stroke-dashoffset="0" font-family="none" font-weight="none" font-size="none" text-anchor="none" style="mix-blend-mode: normal"><path d="M100,20l5.13217,24.54369l5.08274,24.54369l4.98436,24.54369l4.83799,24.54369l4.64502,24.54369l4.40731,24.54369l4.12717,24.54369l3.80727,24.54369l3.45071,24.54369l3.06091,24.54369l2.64164,24.54369l2.19693,24.54369l1.73106,24.54369l1.24852,24.54369l0.75395,24.54369l0.25213,24.54369l-0.25213,24.54369l-0.75395,24.54369l-1.24852,24.54369" fill="none" stroke="#0000ff"/><path d="M100,20l-5.13217,24.54369l-5.08274,24.54369l-4.98436,24.54369l-4.83799,24.54369l-4.64502,24.54369l-4.40731,24.54369l-4.12717,24.54369l-3.80727,24.54369l-3.45071,24.54369l-3.06091,24.54369l-2.64164,24.54369l-2.19693,24.54369l-1.73106,24.54369l-1.24852,24.54369l-0.75395,24.54369l-0.25213,24.54369l0.25213,24.54369l0.75395,24.54369l1.24852,24.54369" fill="none" stroke="#0000ff"/><path d="M100,20l-25.13217,24.54369l-5.08274,24.54369l-4.98436,24.54369l-4.83799,24.54369l-4.64502,24.54369l-4.40731,24.54369l-4.12717,24.54369l-3.80727,24.54369l-3.45071,24.54369l-3.06091,24.54369l-2.64164,24.54369l-2.19693,24.54369l-1.73106,24.54369l-1.24852,24.54369l-0.75395,24.54369l-0.25213,24.54369l0.25213,24.54369l0.75395,24.54369l1.24852,24.54369" fill="none" stroke="#ff0000"/><path d="M100,20l25.13217,24.54369l5.08274,24.54369l4.98436,24.54369l4.83799,24.54369l4.64502,24.54369l4.40731,24.54369l4.12717,24.54369l3.80727,24.54369l3.45071,24.54369l3.06091,24.54369l2.64164,24.54369l2.19693,24.54369l1.73106,24.54369l1.24852,24.54369l0.75395,24.54369l0.25213,24.54369l-0.25213,24.54369l-0.75395,24.54369l-1.24852,24.54369" fill="none" stroke="#ff0000"/><path d="M300,20v400" fill="none" stroke="#a0a0a0"/><text x="220" y="-310" transform="rotate(90)" fill="#a0a0a0" stroke="none" font-family="sans-serif" font-weight="normal" font-size="12pt" text-anchor="middle">491 gore length</text><path d="M100,20v0" fill="none" stroke="#a0a0a0"/><path d="M105.13217,44.54369h-10.26433" fill="none" stroke="#a0a0a0"/><path d="M100,20v24.54369" fill="none" stroke="#a0a0a0"/><text x="84.86783" y="42.54369" fill="#000000" stroke="none" font-family="sans-serif" font-weight="normal" font-size="5pt" text-anchor="middle">10</text><path d="M110.21491,69.08739h-20.42981" fill="none" stroke="#a0a0a0"/><path d="M100,44.54369v24.54369" fill="none" stroke="#a0a0a0"/><text x="79.78509" y="67.08739" fill="#000000" stroke="none" font-family="sans-serif" font-weight="normal" font-size="5pt" text-anchor="middle">20</text><path d="M115.19927,93.63108h-30.39854" fill="none" stroke="#a0a0a0"/><path d="M100,69.08739v24.54369" fill="none" stroke="#a0a0a0"/><text x="74.80073" y="91.63108" fill="#000000" stroke="none" font-family="sans-serif" font-weight="normal" font-size="5pt" text-anchor="middle">30</text><path d="M120.03726,118.17477h-40.07452" fill="none" stroke="#a0a0a0"/><path d="M100,93.63108v24.54369" fill="none" stroke="#a0a0a0"/><text x="69.96274" y="116.17477" fill="#000000" stroke="none" font-family="sans-serif" font-weight="normal" font-size="5pt" text-anchor="middle">40</text><path d="M124.68228,142.71846h-49.36455" fill="none" stroke="#a0a0a0"/><path d="M100,118.17477v24.54369" fill="none" stroke="#a0a0a0"/><text x="65.31772" y="140.71846" fill="#000000" stroke="none" font-family="sans-serif" font-weight="normal" font-size="5pt" text-anchor="middle">49</text><path d="M129.08959,167.26216h-58.17918" fill="none" stroke="#a0a0a0"/><path d="M100,142.71846v24.54369" fill="none" stroke="#a0a0a0"/><text x="60.91041" y="165.26216" fill="#000000" stroke="none" font-family="sans-serif" font-weight="normal" font-size="5pt" text-anchor="middle">58</text><path d="M133.21675,191.80585h-66.43351" fill="none" stroke="#a0a0a0"/><path d="M100,167.26216v24.54369" fill="none" stroke="#a0a0a0"/><text x="56.78325" y="189.80585" fill="#000000" stroke="none" font-family="sans-serif" font-weight="normal" font-size="5pt" text-anchor="middle">66</text><path d="M137.02402,216.34954h-74.04805" fill="none" stroke="#a0a0a0"/><path d="M100,191.80585v24.54369" fill="none" stroke="#a0a0a0"/><text x="52.97598" y="214.34954" fill="#000000" stroke="none" font-family="sans-serif" font-weight="normal" font-size="5pt" text-anchor="middle">74</text><path d="M140.47473,240.89323h-80.94947" fill="none" stroke="#a0a0a0"/><path d="M100,216.34954v24.54369" fill="none" stroke="#a0a0a0"/><text x="49.52527" y="238.89323" fill="#000000" stroke="none" font-family="sans-serif" font-weight="normal" font-size="5pt" text-anchor="middle">81</text><path d="M143.53565,265.43693h-87.07129" fill="none" stroke="#a0a0a0"/><path d="M100,240.89323v24.54369" fill="none" stroke="#a0a0a0"/><text x="46.46435" y="263.43693" fill="#000000" stroke="none" font-family="sans-serif" font-weight="normal" font-size="5pt" text-anchor="middle">87</text><path d="M146.17729,289.98062h-92.35458" fill="none" stroke="#a0a0a0"/><path d="M100,265.43693v24.54369" fill="none" stroke="#a0a0a0"/><text x="43.82271" y="287.98062" fill="#000000" stroke="none" font-family="sans-serif" font-weight="normal" font-size="5pt" text-anchor="middle">92</text><path d="M148.37422,314.52431h-96.74844" fill="none" stroke="#a0a0a0"/><path d="M100,289.98062v24.54369" fill="none" stroke="#a0a0a0"/><text x="41.62578" y="312.52431" fill="#000000" stroke="none" font-family="sans-serif" font-weight="normal" font-size="5pt" text-anchor="middle">97</text><path d="M150.10528,339.068h-100.21056" fill="none" stroke="#a0a0a0"/><path d="M100,314.52431v24.54369" fill="none" stroke="#a0a0a0"/><text x="39.89472" y="337.068" fill="#000000" stroke="none" font-family="sans-serif" font-weight="normal" font-size="5pt" text-anchor="middle">100</text><path d="M151.3538,363.6117h-102.70759" fill="none" stroke="#a0a0a0"/><path d="M100,339.068v24.54369" fill="none" stroke="#a0a0a0"/><text x="38.6462" y="361.6117" fill="#000000" stroke="none" font-family="sans-serif" font-weight="normal" font-size="5pt" text-anchor="middle">103</text><path d="M152.10775,388.15539h-104.2155" fill="none" stroke="#a0a0a0"/><path d="M100,363.6117v24.54369" fill="none" stroke="#a0a0a0"/><text x="37.89225" y="386.15539" fill="#000000" stroke="none" font-family="sans-serif" font-weight="normal" font-size="5pt" text-anchor="middle">104</text><path d="M152.35988,412.69908h-104.71976" fill="none" stroke="#a0a0a0"/><path d="M100,388.15539v24.54369" fill="none" stroke="#a0a0a0"/><text x="37.64012" y="410.69908" fill="#000000" stroke="none" font-family="sans-serif" font-weight="normal" font-size="5pt" text-anchor="middle">105</text><path d="M152.10775,437.24277h-104.2155" fill="none" stroke="#a0a0a0"/><path d="M100,412.69908v24.54369" fill="none" stroke="#a0a0a0"/><text x="37.89225" y="435.24277" fill="#000000" stroke="none" font-family="sans-serif" font-weight="normal" font-size="5pt" text-anchor="middle">104</text><path d="M151.3538,461.78647h-102.70759" fill="none" stroke="#a0a0a0"/><path d="M100,437.24277v24.54369" fill="none" stroke="#a0a0a0"/><text x="38.6462" y="459.78647" fill="#000000" stroke="none" font-family="sans-serif" font-weight="normal" font-size="5pt" text-anchor="middle">103</text><path d="M150.10528,486.33016h-100.21056" fill="none" stroke="#a0a0a0"/><path d="M100,461.78647v24.54369" fill="none" stroke="#a0a0a0"/><text x="39.89472" y="484.33016" fill="#000000" stroke="none" font-family="sans-serif" font-weight="normal" font-size="5pt" text-anchor="middle">100</text><text x="340" y="20" fill="#000000" stroke="none" font-family="sans-serif" font-weight="normal" font-size="12pt" text-anchor="start">Total of 15 gores
Gore width = 105
Gore length = 491
Total material in cm 7731 (+5%) 
</text></g></svg>